<svg xmlns="http://www.w3.org/2000/svg" id="export" class="canvas" preserveAspectRatio="xMidYMid meet" style="" width="284" height="357"><rect id="background" fill="#fff" pointer-events="all" width="284" height="357"/><g id="origin" transform="translate(12.904296875, 12.904296875000568) scale(1)"><g id="clusters" class="clusters"/><g id="edge-paths" class="edge-paths"><defs><marker id="arrowhead" viewBox="0 0 10 10" refX="9" refY="5" markerUnits="strokeWidth" markerWidth="8" markerHeight="6" orient="auto" style="fill: rgb(0, 0, 0);"><path d="M 0 0 L 10 5 L 0 10 L 4 5 z" style="stroke-width: 1;"/></marker><marker id="arrowhead-select" viewBox="0 0 10 10" refX="9" refY="5" markerUnits="strokeWidth" markerWidth="8" markerHeight="6" orient="auto" style="fill: rgb(238, 0, 0);"><path d="M 0 0 L 10 5 L 0 10 L 4 5 z" style="stroke-width: 1;"/></marker><marker id="arrowhead-hover" viewBox="0 0 10 10" refX="9" refY="5" markerUnits="strokeWidth" markerWidth="8" markerHeight="6" orient="auto"><path d="M 0 0 L 10 5 L 0 10 L 4 5 z" style="stroke-width: 1;"/></marker></defs><path id="edge-input" class="edge-path" d="M194.7265625,21L194.7265625,22.666666666666668C194.7265625,24.333333333333332,194.7265625,27.666666666666668,194.7265625,34.335856119791664C194.7265625,41.005045572916664,194.7265625,51.010091145833336,194.7265625,61.01513671875C194.7265625,71.02018229166667,194.7265625,81.02522786458333,194.7265625,87.69441731770833C194.7265625,94.36360677083333,194.7265625,97.69694010416667,194.7265625,99.36360677083333L194.7265625,101.0302734375" style="stroke: rgb(0, 0, 0); stroke-width: 1px; fill: none; marker-end: url(&quot;#arrowhead&quot;);"/><path class="edge-path-hit-test" d="M194.7265625,21L194.7265625,22.666666666666668C194.7265625,24.333333333333332,194.7265625,27.666666666666668,194.7265625,34.335856119791664C194.7265625,41.005045572916664,194.7265625,51.010091145833336,194.7265625,61.01513671875C194.7265625,71.02018229166667,194.7265625,81.02522786458333,194.7265625,87.69441731770833C194.7265625,94.36360677083333,194.7265625,97.69694010416667,194.7265625,99.36360677083333L194.7265625,101.0302734375" style="pointer-events: stroke; stroke-width: 0.5em; fill: none; stroke: rgb(0, 0, 0); stroke-opacity: 0.001;"/><path id="edge-1.running_var" class="edge-path" d="M37.5,81.0302734375L37.5,82.69694010416667C37.5,84.36360677083333,37.5,87.69694010416667,37.5,95.44694010416667C37.5,103.19694010416667,37.5,115.36360677083333,37.5,127.5302734375C37.5,139.69694010416666,37.5,151.86360677083334,43.60546875,160.29272546600876C49.7109375,168.7218441611842,61.921875,173.41341488486842,68.02734375,175.75920024671052L74.1328125,178.10498560855262" style="stroke: rgb(0, 0, 0); stroke-width: 1px; fill: none; marker-end: url(&quot;#arrowhead&quot;);"/><path class="edge-path-hit-test" d="M37.5,81.0302734375L37.5,82.69694010416667C37.5,84.36360677083333,37.5,87.69694010416667,37.5,95.44694010416667C37.5,103.19694010416667,37.5,115.36360677083333,37.5,127.5302734375C37.5,139.69694010416666,37.5,151.86360677083334,43.60546875,160.29272546600876C49.7109375,168.7218441611842,61.921875,173.41341488486842,68.02734375,175.75920024671052L74.1328125,178.10498560855262" style="pointer-events: stroke; stroke-width: 0.5em; fill: none; stroke: rgb(0, 0, 0); stroke-opacity: 0.001;"/><path id="edge-1.running_mean" class="edge-path" d="M132.5,81.0302734375L132.5,82.69694010416667C132.5,84.36360677083333,132.5,87.69694010416667,132.5,95.44694010416667C132.5,103.19694010416667,132.5,115.36360677083333,132.5,127.5302734375C132.5,139.69694010416666,132.5,151.86360677083334,132.5,159.61360677083334C132.5,167.36360677083334,132.5,170.69694010416666,132.5,172.36360677083334L132.5,174.0302734375" style="stroke: rgb(0, 0, 0); stroke-width: 1px; fill: none; marker-end: url(&quot;#arrowhead&quot;);"/><path class="edge-path-hit-test" d="M132.5,81.0302734375L132.5,82.69694010416667C132.5,84.36360677083333,132.5,87.69694010416667,132.5,95.44694010416667C132.5,103.19694010416667,132.5,115.36360677083333,132.5,127.5302734375C132.5,139.69694010416666,132.5,151.86360677083334,132.5,159.61360677083334C132.5,167.36360677083334,132.5,170.69694010416666,132.5,172.36360677083334L132.5,174.0302734375" style="pointer-events: stroke; stroke-width: 0.5em; fill: none; stroke: rgb(0, 0, 0); stroke-opacity: 0.001;"/><path id="edge-/0/Conv_output_0" class="edge-path" d="M194.7265625,154.0302734375L194.7265625,155.69694010416666C194.7265625,157.36360677083334,194.7265625,160.69694010416666,191.8851669520548,164.0302734375C189.0437714041096,167.36360677083334,183.36098030821918,170.69694010416666,180.51958476027394,172.36360677083334L177.67818921232876,174.0302734375" style="stroke: rgb(0, 0, 0); stroke-width: 1px; fill: none; marker-end: url(&quot;#arrowhead&quot;);"/><path class="edge-path-hit-test" d="M194.7265625,154.0302734375L194.7265625,155.69694010416666C194.7265625,157.36360677083334,194.7265625,160.69694010416666,191.8851669520548,164.0302734375C189.0437714041096,167.36360677083334,183.36098030821918,170.69694010416666,180.51958476027394,172.36360677083334L177.67818921232876,174.0302734375" style="pointer-events: stroke; stroke-width: 0.5em; fill: none; stroke: rgb(0, 0, 0); stroke-opacity: 0.001;"/><path id="edge-/1/BatchNormalization_output_0" class="edge-path" d="M132.5,227.0302734375L132.5,228.69694010416666C132.5,230.36360677083334,132.5,233.69694010416666,132.5,237.0302734375C132.5,240.36360677083334,132.5,243.69694010416666,132.5,245.36360677083334L132.5,247.0302734375" style="stroke: rgb(0, 0, 0); stroke-width: 1px; fill: none; marker-end: url(&quot;#arrowhead&quot;);"/><path class="edge-path-hit-test" d="M132.5,227.0302734375L132.5,228.69694010416666C132.5,230.36360677083334,132.5,233.69694010416666,132.5,237.0302734375C132.5,240.36360677083334,132.5,243.69694010416666,132.5,245.36360677083334L132.5,247.0302734375" style="pointer-events: stroke; stroke-width: 0.5em; fill: none; stroke: rgb(0, 0, 0); stroke-opacity: 0.001;"/><path id="edge-output" class="edge-path" d="M132.5,268.0302734375L132.5,271.5302734375C132.5,275.0302734375,132.5,282.0302734375,132.5,289.0302734375C132.5,296.0302734375,132.5,303.0302734375,132.5,306.5302734375L132.5,310.0302734375" style="stroke: rgb(0, 0, 0); stroke-width: 1px; fill: none; marker-end: url(&quot;#arrowhead&quot;);"/><path class="edge-path-hit-test" d="M132.5,268.0302734375L132.5,271.5302734375C132.5,275.0302734375,132.5,282.0302734375,132.5,289.0302734375C132.5,296.0302734375,132.5,303.0302734375,132.5,306.5302734375L132.5,310.0302734375" style="pointer-events: stroke; stroke-width: 0.5em; fill: none; stroke: rgb(0, 0, 0); stroke-opacity: 0.001;"/></g><g id="edge-labels" class="edge-labels"><text class="edge-label" id="edge-label-edge-input" transform="translate(199.7265625,55.01513671875)" style="opacity: 1; font-family: -apple-system, BlinkMacSystemFont, &quot;Segoe WPC&quot;, &quot;Segoe UI&quot;, Ubuntu, &quot;Droid Sans&quot;, sans-serif, &quot;PingFang SC&quot;; font-size: 10px;"><tspan xml:space="preserve" dy="1em" x="1">2×3×59×59</tspan></text><text class="edge-label" id="edge-label-edge-output" transform="translate(137.5,283.0302734375)" style="opacity: 1; font-family: -apple-system, BlinkMacSystemFont, &quot;Segoe WPC&quot;, &quot;Segoe UI&quot;, Ubuntu, &quot;Droid Sans&quot;, sans-serif, &quot;PingFang SC&quot;; font-size: 10px;"><tspan xml:space="preserve" dy="1em" x="1">2×16×59×59</tspan></text></g><g id="nodes" class="nodes"><g id="input-name-input" class="node graph-input" transform="translate(174.4296875,0)" style=""><g class="node-item graph-item-input" transform="translate(0,0)"><path d="M5,0h30.59375a5,5 0 0 1 5,5v11a5,5 0 0 1 -5,5h-30.59375a5,5 0 0 1 -5,-5v-11a5,5 0 0 1 5,-5z" style="stroke: rgb(0, 0, 0); fill: rgb(238, 238, 238); stroke-width: 0;"/><text x="6" y="15" style="font-family: -apple-system, BlinkMacSystemFont, &quot;Segoe WPC&quot;, &quot;Segoe UI&quot;, Ubuntu, &quot;Droid Sans&quot;, sans-serif, &quot;PingFang SC&quot;; font-size: 11px; text-rendering: geometricprecision; user-select: none;">input</text><title>float32[2,3,59,59]</title></g><path class="node node-border" d="M5,0h30.59375a5,5 0 0 1 5,5v11a5,5 0 0 1 -5,5h-30.59375a5,5 0 0 1 -5,-5v-11a5,5 0 0 1 5,-5z" style="stroke: rgb(51, 51, 51); fill: none; stroke-width: 1px;"/></g><g id="node-name-Identity_0" class="node graph-node" transform="translate(0,41)" style=""><g class="node-item node-item-type" transform="translate(0,0)"><path d="M5,0h65a5,5 0 0 1 5,5v16.0302734375a0,0 0 0 1 0,0h-75a0,0 0 0 1 0,0v-16.0302734375a5,5 0 0 1 5,-5z" style="stroke: rgb(0, 0, 0); fill: rgb(0, 0, 0); stroke-width: 0;"/><text x="6" y="15" style="font-family: -apple-system, BlinkMacSystemFont, &quot;Segoe WPC&quot;, &quot;Segoe UI&quot;, Ubuntu, &quot;Droid Sans&quot;, sans-serif, &quot;PingFang SC&quot;; font-size: 11px; text-rendering: geometricprecision; user-select: none; fill: rgb(255, 255, 255);">Identity</text><title>Identity_0</title></g><g class="node-attribute-list" transform="translate(0,21.0302734375)"><path d="M0,0h75a0,0 0 0 1 0,0v14a5,5 0 0 1 -5,5h-65a5,5 0 0 1 -5,-5v-14a0,0 0 0 1 0,0z" style="stroke: rgb(0, 0, 0); fill: rgb(255, 255, 255); stroke-width: 0;"/><g class="node-attribute"><text xml:space="preserve" x="6" y="13" style="font-family: -apple-system, BlinkMacSystemFont, &quot;Segoe WPC&quot;, &quot;Segoe UI&quot;, Ubuntu, &quot;Droid Sans&quot;, sans-serif, &quot;PingFang SC&quot;; font-size: 9px; font-weight: normal; text-rendering: geometricprecision; user-select: none;"><title>float32[16]</title><tspan style="font-weight: bold;">input</tspan><tspan>〈16〉</tspan></text></g><line class="node" x1="0" x2="75" y1="0" y2="0" style="stroke: rgb(51, 51, 51); fill: none; stroke-width: 1px;"/></g><path class="node node-border" d="M5,0h65a5,5 0 0 1 5,5v30.0302734375a5,5 0 0 1 -5,5h-65a5,5 0 0 1 -5,-5v-30.0302734375a5,5 0 0 1 5,-5z" style="stroke: rgb(51, 51, 51); fill: none; stroke-width: 1px;"/></g><g id="node-name-Identity_1" class="node graph-node" transform="translate(95,41)" style=""><g class="node-item node-item-type" transform="translate(0,0)"><path d="M5,0h65a5,5 0 0 1 5,5v16.0302734375a0,0 0 0 1 0,0h-75a0,0 0 0 1 0,0v-16.0302734375a5,5 0 0 1 5,-5z" style="stroke: rgb(0, 0, 0); fill: rgb(0, 0, 0); stroke-width: 0;"/><text x="6" y="15" style="font-family: -apple-system, BlinkMacSystemFont, &quot;Segoe WPC&quot;, &quot;Segoe UI&quot;, Ubuntu, &quot;Droid Sans&quot;, sans-serif, &quot;PingFang SC&quot;; font-size: 11px; text-rendering: geometricprecision; user-select: none; fill: rgb(255, 255, 255);">Identity</text><title>Identity_1</title></g><g class="node-attribute-list" transform="translate(0,21.0302734375)"><path d="M0,0h75a0,0 0 0 1 0,0v14a5,5 0 0 1 -5,5h-65a5,5 0 0 1 -5,-5v-14a0,0 0 0 1 0,0z" style="stroke: rgb(0, 0, 0); fill: rgb(255, 255, 255); stroke-width: 0;"/><g class="node-attribute"><text xml:space="preserve" x="6" y="13" style="font-family: -apple-system, BlinkMacSystemFont, &quot;Segoe WPC&quot;, &quot;Segoe UI&quot;, Ubuntu, &quot;Droid Sans&quot;, sans-serif, &quot;PingFang SC&quot;; font-size: 9px; font-weight: normal; text-rendering: geometricprecision; user-select: none;"><title>float32[16]</title><tspan style="font-weight: bold;">input</tspan><tspan>〈16〉</tspan></text></g><line class="node" x1="0" x2="75" y1="0" y2="0" style="stroke: rgb(51, 51, 51); fill: none; stroke-width: 1px;"/></g><path class="node node-border" d="M5,0h65a5,5 0 0 1 5,5v30.0302734375a5,5 0 0 1 -5,5h-65a5,5 0 0 1 -5,-5v-30.0302734375a5,5 0 0 1 5,-5z" style="stroke: rgb(51, 51, 51); fill: none; stroke-width: 1px;"/></g><g id="node-name-/0/Conv" class="node graph-node" transform="translate(152.5,101.0302734375)" style=""><g class="node-item node-item-type node-item-type-layer" transform="translate(0,0)"><path d="M5,0h74.453125a5,5 0 0 1 5,5v16a0,0 0 0 1 0,0h-84.453125a0,0 0 0 1 0,0v-16a5,5 0 0 1 5,-5z" style="stroke: rgb(0, 0, 0); fill: rgb(51, 85, 136); stroke-width: 0;"/><text x="6" y="15" style="font-family: -apple-system, BlinkMacSystemFont, &quot;Segoe WPC&quot;, &quot;Segoe UI&quot;, Ubuntu, &quot;Droid Sans&quot;, sans-serif, &quot;PingFang SC&quot;; font-size: 11px; text-rendering: geometricprecision; user-select: none; fill: rgb(255, 255, 255);">Conv</text><title>/0/Conv</title></g><g class="node-attribute-list" transform="translate(0,21)"><path d="M0,0h84.453125a0,0 0 0 1 0,0v27a5,5 0 0 1 -5,5h-74.453125a5,5 0 0 1 -5,-5v-27a0,0 0 0 1 0,0z" style="stroke: rgb(0, 0, 0); fill: rgb(255, 255, 255); stroke-width: 0;"/><g class="node-attribute"><text xml:space="preserve" x="6" y="13" style="font-family: -apple-system, BlinkMacSystemFont, &quot;Segoe WPC&quot;, &quot;Segoe UI&quot;, Ubuntu, &quot;Droid Sans&quot;, sans-serif, &quot;PingFang SC&quot;; font-size: 9px; font-weight: normal; text-rendering: geometricprecision; user-select: none;"><title>float32[16,3,3,3]</title><tspan style="font-weight: bold;">W</tspan><tspan>〈16×3×3×3〉</tspan></text></g><g class="node-attribute"><text xml:space="preserve" x="6" y="26" style="font-family: -apple-system, BlinkMacSystemFont, &quot;Segoe WPC&quot;, &quot;Segoe UI&quot;, Ubuntu, &quot;Droid Sans&quot;, sans-serif, &quot;PingFang SC&quot;; font-size: 9px; font-weight: normal; text-rendering: geometricprecision; user-select: none;"><title>float32[16]</title><tspan style="font-weight: bold;">B</tspan><tspan>〈16〉</tspan></text></g><line class="node" x1="0" x2="84.453125" y1="0" y2="0" style="stroke: rgb(51, 51, 51); fill: none; stroke-width: 1px;"/></g><path class="node node-border" d="M5,0h74.453125a5,5 0 0 1 5,5v43a5,5 0 0 1 -5,5h-74.453125a5,5 0 0 1 -5,-5v-43a5,5 0 0 1 5,-5z" style="stroke: rgb(51, 51, 51); fill: none; stroke-width: 1px;"/></g><g id="node-name-/1/BatchNormalization" class="node graph-node" transform="translate(74.1328125,174.0302734375)" style=""><g class="node-item node-item-type node-item-type-normalization" transform="translate(0,0)"><path d="M5,0h106.734375a5,5 0 0 1 5,5v16a0,0 0 0 1 0,0h-116.734375a0,0 0 0 1 0,0v-16a5,5 0 0 1 5,-5z" style="stroke: rgb(0, 0, 0); fill: rgb(51, 85, 68); stroke-width: 0;"/><text x="6" y="15" style="font-family: -apple-system, BlinkMacSystemFont, &quot;Segoe WPC&quot;, &quot;Segoe UI&quot;, Ubuntu, &quot;Droid Sans&quot;, sans-serif, &quot;PingFang SC&quot;; font-size: 11px; text-rendering: geometricprecision; user-select: none; fill: rgb(255, 255, 255);">BatchNormalization</text><title>/1/BatchNormalization</title></g><g class="node-attribute-list" transform="translate(0,21)"><path d="M0,0h116.734375a0,0 0 0 1 0,0v27a5,5 0 0 1 -5,5h-106.734375a5,5 0 0 1 -5,-5v-27a0,0 0 0 1 0,0z" style="stroke: rgb(0, 0, 0); fill: rgb(255, 255, 255); stroke-width: 0;"/><g class="node-attribute"><text xml:space="preserve" x="6" y="13" style="font-family: -apple-system, BlinkMacSystemFont, &quot;Segoe WPC&quot;, &quot;Segoe UI&quot;, Ubuntu, &quot;Droid Sans&quot;, sans-serif, &quot;PingFang SC&quot;; font-size: 9px; font-weight: normal; text-rendering: geometricprecision; user-select: none;"><title>float32[16]</title><tspan style="font-weight: bold;">scale</tspan><tspan>〈16〉</tspan></text></g><g class="node-attribute"><text xml:space="preserve" x="6" y="26" style="font-family: -apple-system, BlinkMacSystemFont, &quot;Segoe WPC&quot;, &quot;Segoe UI&quot;, Ubuntu, &quot;Droid Sans&quot;, sans-serif, &quot;PingFang SC&quot;; font-size: 9px; font-weight: normal; text-rendering: geometricprecision; user-select: none;"><title>float32[16]</title><tspan style="font-weight: bold;">B</tspan><tspan>〈16〉</tspan></text></g><line class="node" x1="0" x2="116.734375" y1="0" y2="0" style="stroke: rgb(51, 51, 51); fill: none; stroke-width: 1px;"/></g><path class="node node-border" d="M5,0h106.734375a5,5 0 0 1 5,5v43a5,5 0 0 1 -5,5h-106.734375a5,5 0 0 1 -5,-5v-43a5,5 0 0 1 5,-5z" style="stroke: rgb(51, 51, 51); fill: none; stroke-width: 1px;"/></g><g id="node-name-/2/Relu" class="node graph-node" transform="translate(114.109375,247.0302734375)" style=""><g class="node-item node-item-type node-item-type-activation" transform="translate(0,0)"><path d="M5,0h26.78125a5,5 0 0 1 5,5v11a5,5 0 0 1 -5,5h-26.78125a5,5 0 0 1 -5,-5v-11a5,5 0 0 1 5,-5z" style="stroke: rgb(0, 0, 0); fill: rgb(112, 41, 33); stroke-width: 0;"/><text x="6" y="15" style="font-family: -apple-system, BlinkMacSystemFont, &quot;Segoe WPC&quot;, &quot;Segoe UI&quot;, Ubuntu, &quot;Droid Sans&quot;, sans-serif, &quot;PingFang SC&quot;; font-size: 11px; text-rendering: geometricprecision; user-select: none; fill: rgb(255, 255, 255);">Relu</text><title>/2/Relu</title></g><path class="node node-border" d="M5,0h26.78125a5,5 0 0 1 5,5v11a5,5 0 0 1 -5,5h-26.78125a5,5 0 0 1 -5,-5v-11a5,5 0 0 1 5,-5z" style="stroke: rgb(51, 51, 51); fill: none; stroke-width: 1px;"/></g><g class="node" transform="translate(108.28125,310.0302734375)" style=""><g class="node-item graph-item-output" transform="translate(0,0)"><path d="M5,0h38.4375a5,5 0 0 1 5,5v11a5,5 0 0 1 -5,5h-38.4375a5,5 0 0 1 -5,-5v-11a5,5 0 0 1 5,-5z" style="stroke: rgb(0, 0, 0); fill: rgb(238, 238, 238); stroke-width: 0;"/><text x="6" y="15" style="font-family: -apple-system, BlinkMacSystemFont, &quot;Segoe WPC&quot;, &quot;Segoe UI&quot;, Ubuntu, &quot;Droid Sans&quot;, sans-serif, &quot;PingFang SC&quot;; font-size: 11px; text-rendering: geometricprecision; user-select: none;">output</text><title>float32[2,16,59,59]</title></g><path class="node node-border" d="M5,0h38.4375a5,5 0 0 1 5,5v11a5,5 0 0 1 -5,5h-38.4375a5,5 0 0 1 -5,-5v-11a5,5 0 0 1 5,-5z" style="stroke: rgb(51, 51, 51); fill: none; stroke-width: 1px;"/></g></g></g></svg>