<svg xmlns="http://www.w3.org/2000/svg" id="export" class="canvas" preserveAspectRatio="xMidYMid meet" style="" width="408" height="264"><rect id="background" fill="#fff" pointer-events="all" width="408" height="264"/><g id="origin" transform="translate(12, 12) scale(1)"><g id="clusters" class="clusters"/><g id="edge-paths" class="edge-paths"><defs><marker id="arrowhead" viewBox="0 0 10 10" refX="9" refY="5" markerUnits="strokeWidth" markerWidth="8" markerHeight="6" orient="auto" style="fill: rgb(0, 0, 0);"><path d="M 0 0 L 10 5 L 0 10 L 4 5 z" style="stroke-width: 1;"/></marker><marker id="arrowhead-select" viewBox="0 0 10 10" refX="9" refY="5" markerUnits="strokeWidth" markerWidth="8" markerHeight="6" orient="auto" style="fill: rgb(238, 0, 0);"><path d="M 0 0 L 10 5 L 0 10 L 4 5 z" style="stroke-width: 1;"/></marker><marker id="arrowhead-hover" viewBox="0 0 10 10" refX="9" refY="5" markerUnits="strokeWidth" markerWidth="8" markerHeight="6" orient="auto"><path d="M 0 0 L 10 5 L 0 10 L 4 5 z" style="stroke-width: 1;"/></marker></defs><path id="edge-input" class="edge-path" d="M20.296875,94L20.296875,95.66666666666667C20.296875,97.33333333333333,20.296875,100.66666666666667,20.296875,105.83333333333333C20.296875,111,20.296875,118,20.296875,125C20.296875,132,20.296875,139,34.56640625,145.04041997421805C48.8359375,151.08083994843614,77.375,156.16167989687224,91.64453125,158.70209987109033L105.9140625,161.24251984530838" style="stroke: rgb(0, 0, 0); stroke-width: 1px; fill: none; marker-end: url(&quot;#arrowhead&quot;);"/><path class="edge-path-hit-test" d="M20.296875,94L20.296875,95.66666666666667C20.296875,97.33333333333333,20.296875,100.66666666666667,20.296875,105.83333333333333C20.296875,111,20.296875,118,20.296875,125C20.296875,132,20.296875,139,34.56640625,145.04041997421805C48.8359375,151.08083994843614,77.375,156.16167989687224,91.64453125,158.70209987109033L105.9140625,161.24251984530838" style="pointer-events: stroke; stroke-width: 0.5em; fill: none; stroke: rgb(0, 0, 0); stroke-opacity: 0.001;"/><path id="edge-/Unsqueeze_output_0" class="edge-path" d="M60.59375,53L60.59375,54.666666666666664C60.59375,56.333333333333336,60.59375,59.666666666666664,60.59375,64.75C60.59375,69.83333333333333,60.59375,76.66666666666667,60.59375,83.5C60.59375,90.33333333333333,60.59375,97.16666666666667,80.05989583333333,103.45202850877193C99.52604166666667,109.73739035087719,138.45833333333334,115.47478070175437,157.92447916666666,118.34347587719297L177.390625,121.21217105263158" style="stroke: rgb(0, 0, 0); stroke-width: 1px; fill: none; marker-end: url(&quot;#arrowhead&quot;);"/><path class="edge-path-hit-test" d="M60.59375,53L60.59375,54.666666666666664C60.59375,56.333333333333336,60.59375,59.666666666666664,60.59375,64.75C60.59375,69.83333333333333,60.59375,76.66666666666667,60.59375,83.5C60.59375,90.33333333333333,60.59375,97.16666666666667,80.05989583333333,103.45202850877193C99.52604166666667,109.73739035087719,138.45833333333334,115.47478070175437,157.92447916666666,118.34347587719297L177.390625,121.21217105263158" style="pointer-events: stroke; stroke-width: 0.5em; fill: none; stroke: rgb(0, 0, 0); stroke-opacity: 0.001;"/><path id="edge-/Unsqueeze_1_output_0" class="edge-path" d="M155.59375,53L155.59375,54.666666666666664C155.59375,56.333333333333336,155.59375,59.666666666666664,155.59375,64.75C155.59375,69.83333333333333,155.59375,76.66666666666667,155.59375,83.5C155.59375,90.33333333333333,155.59375,97.16666666666667,159.55208333333334,102.33333333333333C163.51041666666666,107.5,171.42708333333334,111,175.38541666666666,112.75L179.34375,114.5" style="stroke: rgb(0, 0, 0); stroke-width: 1px; fill: none; marker-end: url(&quot;#arrowhead&quot;);"/><path class="edge-path-hit-test" d="M155.59375,53L155.59375,54.666666666666664C155.59375,56.333333333333336,155.59375,59.666666666666664,155.59375,64.75C155.59375,69.83333333333333,155.59375,76.66666666666667,155.59375,83.5C155.59375,90.33333333333333,155.59375,97.16666666666667,159.55208333333334,102.33333333333333C163.51041666666666,107.5,171.42708333333334,111,175.38541666666666,112.75L179.34375,114.5" style="pointer-events: stroke; stroke-width: 0.5em; fill: none; stroke: rgb(0, 0, 0); stroke-opacity: 0.001;"/><path id="edge-/Unsqueeze_2_output_0" class="edge-path" d="M250.59375,53L250.59375,54.666666666666664C250.59375,56.333333333333336,250.59375,59.666666666666664,250.59375,64.75C250.59375,69.83333333333333,250.59375,76.66666666666667,250.59375,83.5C250.59375,90.33333333333333,250.59375,97.16666666666667,246.63541666666666,102.33333333333333C242.67708333333334,107.5,234.76041666666666,111,230.80208333333334,112.75L226.84375,114.5" style="stroke: rgb(0, 0, 0); stroke-width: 1px; fill: none; marker-end: url(&quot;#arrowhead&quot;);"/><path class="edge-path-hit-test" d="M250.59375,53L250.59375,54.666666666666664C250.59375,56.333333333333336,250.59375,59.666666666666664,250.59375,64.75C250.59375,69.83333333333333,250.59375,76.66666666666667,250.59375,83.5C250.59375,90.33333333333333,250.59375,97.16666666666667,246.63541666666666,102.33333333333333C242.67708333333334,107.5,234.76041666666666,111,230.80208333333334,112.75L226.84375,114.5" style="pointer-events: stroke; stroke-width: 0.5em; fill: none; stroke: rgb(0, 0, 0); stroke-opacity: 0.001;"/><path id="edge-/Unsqueeze_3_output_0" class="edge-path" d="M345.59375,53L345.59375,54.666666666666664C345.59375,56.333333333333336,345.59375,59.666666666666664,345.59375,64.75C345.59375,69.83333333333333,345.59375,76.66666666666667,345.59375,83.5C345.59375,90.33333333333333,345.59375,97.16666666666667,326.1276041666667,103.45202850877193C306.6614583333333,109.73739035087719,267.7291666666667,115.47478070175437,248.26302083333334,118.34347587719297L228.796875,121.21217105263158" style="stroke: rgb(0, 0, 0); stroke-width: 1px; fill: none; marker-end: url(&quot;#arrowhead&quot;);"/><path class="edge-path-hit-test" d="M345.59375,53L345.59375,54.666666666666664C345.59375,56.333333333333336,345.59375,59.666666666666664,345.59375,64.75C345.59375,69.83333333333333,345.59375,76.66666666666667,345.59375,83.5C345.59375,90.33333333333333,345.59375,97.16666666666667,326.1276041666667,103.45202850877193C306.6614583333333,109.73739035087719,267.7291666666667,115.47478070175437,248.26302083333334,118.34347587719297L228.796875,121.21217105263158" style="pointer-events: stroke; stroke-width: 0.5em; fill: none; stroke: rgb(0, 0, 0); stroke-opacity: 0.001;"/><path id="edge-/Concat_output_0" class="edge-path" d="M203.09375,135.5L203.09375,137.25C203.09375,139,203.09375,142.5,196.74088541666666,146.17515494475882C190.38802083333334,149.85030988951766,177.68229166666666,153.7006197790353,171.32942708333334,155.62577472379414L164.9765625,157.55092966855295" style="stroke: rgb(0, 0, 0); stroke-width: 1px; fill: none; marker-end: url(&quot;#arrowhead&quot;);"/><path class="edge-path-hit-test" d="M203.09375,135.5L203.09375,137.25C203.09375,139,203.09375,142.5,196.74088541666666,146.17515494475882C190.38802083333334,149.85030988951766,177.68229166666666,153.7006197790353,171.32942708333334,155.62577472379414L164.9765625,157.55092966855295" style="pointer-events: stroke; stroke-width: 0.5em; fill: none; stroke: rgb(0, 0, 0); stroke-opacity: 0.001;"/><path id="edge-output" class="edge-path" d="M135.4453125,177L135.4453125,180.5C135.4453125,184,135.4453125,191,135.4453125,198C135.4453125,205,135.4453125,212,135.4453125,215.5L135.4453125,219" style="stroke: rgb(0, 0, 0); stroke-width: 1px; fill: none; marker-end: url(&quot;#arrowhead&quot;);"/><path class="edge-path-hit-test" d="M135.4453125,177L135.4453125,180.5C135.4453125,184,135.4453125,191,135.4453125,198C135.4453125,205,135.4453125,212,135.4453125,215.5L135.4453125,219" style="pointer-events: stroke; stroke-width: 0.5em; fill: none; stroke: rgb(0, 0, 0); stroke-opacity: 0.001;"/></g><g id="edge-labels" class="edge-labels"><text class="edge-label" id="edge-label-edge-input" transform="translate(25.296875,119)" style="opacity: 1; font-family: -apple-system, BlinkMacSystemFont, &quot;Segoe WPC&quot;, &quot;Segoe UI&quot;, Ubuntu, &quot;Droid Sans&quot;, sans-serif, &quot;PingFang SC&quot;; font-size: 10px;"><tspan xml:space="preserve" dy="1em" x="1">2×3×4×59</tspan></text><text class="edge-label" id="edge-label-edge-output" transform="translate(140.4453125,192)" style="opacity: 1; font-family: -apple-system, BlinkMacSystemFont, &quot;Segoe WPC&quot;, &quot;Segoe UI&quot;, Ubuntu, &quot;Droid Sans&quot;, sans-serif, &quot;PingFang SC&quot;; font-size: 10px;"><tspan xml:space="preserve" dy="1em" x="1">2×3×59×4</tspan></text></g><g id="nodes" class="nodes"><g id="input-name-input" class="node graph-input" transform="translate(0,73)" style=""><g class="node-item graph-item-input" transform="translate(0,0)"><path d="M5,0h30.59375a5,5 0 0 1 5,5v11a5,5 0 0 1 -5,5h-30.59375a5,5 0 0 1 -5,-5v-11a5,5 0 0 1 5,-5z" style="stroke: rgb(0, 0, 0); fill: rgb(238, 238, 238); stroke-width: 0;"/><text x="6" y="15" style="font-family: -apple-system, BlinkMacSystemFont, &quot;Segoe WPC&quot;, &quot;Segoe UI&quot;, Ubuntu, &quot;Droid Sans&quot;, sans-serif, &quot;PingFang SC&quot;; font-size: 11px; text-rendering: geometricprecision; user-select: none;">input</text><title>float32[2,3,4,59]</title></g><path class="node node-border" d="M5,0h30.59375a5,5 0 0 1 5,5v11a5,5 0 0 1 -5,5h-30.59375a5,5 0 0 1 -5,-5v-11a5,5 0 0 1 5,-5z" style="stroke: rgb(51, 51, 51); fill: none; stroke-width: 1px;"/></g><g id="node-name-/Unsqueeze" class="node graph-node" transform="translate(23.09375,0)" style=""><g class="node-item node-item-type node-item-type-transform" transform="translate(0,0)"><path d="M5,0h65a5,5 0 0 1 5,5v16a0,0 0 0 1 0,0h-75a0,0 0 0 1 0,0v-16a5,5 0 0 1 5,-5z" style="stroke: rgb(0, 0, 0); fill: rgb(51, 85, 68); stroke-width: 0;"/><text x="6" y="15" style="font-family: -apple-system, BlinkMacSystemFont, &quot;Segoe WPC&quot;, &quot;Segoe UI&quot;, Ubuntu, &quot;Droid Sans&quot;, sans-serif, &quot;PingFang SC&quot;; font-size: 11px; text-rendering: geometricprecision; user-select: none; fill: rgb(255, 255, 255);">Unsqueeze</text><title>/Unsqueeze</title></g><g class="node-attribute-list" transform="translate(0,21)"><path d="M0,0h75a0,0 0 0 1 0,0v27a5,5 0 0 1 -5,5h-65a5,5 0 0 1 -5,-5v-27a0,0 0 0 1 0,0z" style="stroke: rgb(0, 0, 0); fill: rgb(255, 255, 255); stroke-width: 0;"/><g class="node-attribute"><text xml:space="preserve" x="6" y="13" style="font-family: -apple-system, BlinkMacSystemFont, &quot;Segoe WPC&quot;, &quot;Segoe UI&quot;, Ubuntu, &quot;Droid Sans&quot;, sans-serif, &quot;PingFang SC&quot;; font-size: 9px; font-weight: normal; text-rendering: geometricprecision; user-select: none;"><title>int64</title><tspan>data</tspan><tspan> = 2</tspan></text></g><g class="node-attribute"><text xml:space="preserve" x="6" y="26" style="font-family: -apple-system, BlinkMacSystemFont, &quot;Segoe WPC&quot;, &quot;Segoe UI&quot;, Ubuntu, &quot;Droid Sans&quot;, sans-serif, &quot;PingFang SC&quot;; font-size: 9px; font-weight: normal; text-rendering: geometricprecision; user-select: none;"><title>int64[1]</title><tspan style="font-weight: bold;">axes</tspan><tspan>〈1〉</tspan></text></g><line class="node" x1="0" x2="75" y1="0" y2="0" style="stroke: rgb(51, 51, 51); fill: none; stroke-width: 1px;"/></g><path class="node node-border" d="M5,0h65a5,5 0 0 1 5,5v43a5,5 0 0 1 -5,5h-65a5,5 0 0 1 -5,-5v-43a5,5 0 0 1 5,-5z" style="stroke: rgb(51, 51, 51); fill: none; stroke-width: 1px;"/></g><g id="node-name-/Unsqueeze_1" class="node graph-node" transform="translate(118.09375,0)" style=""><g class="node-item node-item-type node-item-type-transform" transform="translate(0,0)"><path d="M5,0h65a5,5 0 0 1 5,5v16a0,0 0 0 1 0,0h-75a0,0 0 0 1 0,0v-16a5,5 0 0 1 5,-5z" style="stroke: rgb(0, 0, 0); fill: rgb(51, 85, 68); stroke-width: 0;"/><text x="6" y="15" style="font-family: -apple-system, BlinkMacSystemFont, &quot;Segoe WPC&quot;, &quot;Segoe UI&quot;, Ubuntu, &quot;Droid Sans&quot;, sans-serif, &quot;PingFang SC&quot;; font-size: 11px; text-rendering: geometricprecision; user-select: none; fill: rgb(255, 255, 255);">Unsqueeze</text><title>/Unsqueeze_1</title></g><g class="node-attribute-list" transform="translate(0,21)"><path d="M0,0h75a0,0 0 0 1 0,0v27a5,5 0 0 1 -5,5h-65a5,5 0 0 1 -5,-5v-27a0,0 0 0 1 0,0z" style="stroke: rgb(0, 0, 0); fill: rgb(255, 255, 255); stroke-width: 0;"/><g class="node-attribute"><text xml:space="preserve" x="6" y="13" style="font-family: -apple-system, BlinkMacSystemFont, &quot;Segoe WPC&quot;, &quot;Segoe UI&quot;, Ubuntu, &quot;Droid Sans&quot;, sans-serif, &quot;PingFang SC&quot;; font-size: 9px; font-weight: normal; text-rendering: geometricprecision; user-select: none;"><title>int64</title><tspan>data</tspan><tspan> = 3</tspan></text></g><g class="node-attribute"><text xml:space="preserve" x="6" y="26" style="font-family: -apple-system, BlinkMacSystemFont, &quot;Segoe WPC&quot;, &quot;Segoe UI&quot;, Ubuntu, &quot;Droid Sans&quot;, sans-serif, &quot;PingFang SC&quot;; font-size: 9px; font-weight: normal; text-rendering: geometricprecision; user-select: none;"><title>int64[1]</title><tspan style="font-weight: bold;">axes</tspan><tspan>〈1〉</tspan></text></g><line class="node" x1="0" x2="75" y1="0" y2="0" style="stroke: rgb(51, 51, 51); fill: none; stroke-width: 1px;"/></g><path class="node node-border" d="M5,0h65a5,5 0 0 1 5,5v43a5,5 0 0 1 -5,5h-65a5,5 0 0 1 -5,-5v-43a5,5 0 0 1 5,-5z" style="stroke: rgb(51, 51, 51); fill: none; stroke-width: 1px;"/></g><g id="node-name-/Unsqueeze_2" class="node graph-node" transform="translate(213.09375,0)" style=""><g class="node-item node-item-type node-item-type-transform" transform="translate(0,0)"><path d="M5,0h65a5,5 0 0 1 5,5v16a0,0 0 0 1 0,0h-75a0,0 0 0 1 0,0v-16a5,5 0 0 1 5,-5z" style="stroke: rgb(0, 0, 0); fill: rgb(51, 85, 68); stroke-width: 0;"/><text x="6" y="15" style="font-family: -apple-system, BlinkMacSystemFont, &quot;Segoe WPC&quot;, &quot;Segoe UI&quot;, Ubuntu, &quot;Droid Sans&quot;, sans-serif, &quot;PingFang SC&quot;; font-size: 11px; text-rendering: geometricprecision; user-select: none; fill: rgb(255, 255, 255);">Unsqueeze</text><title>/Unsqueeze_2</title></g><g class="node-attribute-list" transform="translate(0,21)"><path d="M0,0h75a0,0 0 0 1 0,0v27a5,5 0 0 1 -5,5h-65a5,5 0 0 1 -5,-5v-27a0,0 0 0 1 0,0z" style="stroke: rgb(0, 0, 0); fill: rgb(255, 255, 255); stroke-width: 0;"/><g class="node-attribute"><text xml:space="preserve" x="6" y="13" style="font-family: -apple-system, BlinkMacSystemFont, &quot;Segoe WPC&quot;, &quot;Segoe UI&quot;, Ubuntu, &quot;Droid Sans&quot;, sans-serif, &quot;PingFang SC&quot;; font-size: 9px; font-weight: normal; text-rendering: geometricprecision; user-select: none;"><title>int64</title><tspan>data</tspan><tspan> = 59</tspan></text></g><g class="node-attribute"><text xml:space="preserve" x="6" y="26" style="font-family: -apple-system, BlinkMacSystemFont, &quot;Segoe WPC&quot;, &quot;Segoe UI&quot;, Ubuntu, &quot;Droid Sans&quot;, sans-serif, &quot;PingFang SC&quot;; font-size: 9px; font-weight: normal; text-rendering: geometricprecision; user-select: none;"><title>int64[1]</title><tspan style="font-weight: bold;">axes</tspan><tspan>〈1〉</tspan></text></g><line class="node" x1="0" x2="75" y1="0" y2="0" style="stroke: rgb(51, 51, 51); fill: none; stroke-width: 1px;"/></g><path class="node node-border" d="M5,0h65a5,5 0 0 1 5,5v43a5,5 0 0 1 -5,5h-65a5,5 0 0 1 -5,-5v-43a5,5 0 0 1 5,-5z" style="stroke: rgb(51, 51, 51); fill: none; stroke-width: 1px;"/></g><g id="node-name-/Unsqueeze_3" class="node graph-node" transform="translate(308.09375,0)" style=""><g class="node-item node-item-type node-item-type-transform" transform="translate(0,0)"><path d="M5,0h65a5,5 0 0 1 5,5v16a0,0 0 0 1 0,0h-75a0,0 0 0 1 0,0v-16a5,5 0 0 1 5,-5z" style="stroke: rgb(0, 0, 0); fill: rgb(51, 85, 68); stroke-width: 0;"/><text x="6" y="15" style="font-family: -apple-system, BlinkMacSystemFont, &quot;Segoe WPC&quot;, &quot;Segoe UI&quot;, Ubuntu, &quot;Droid Sans&quot;, sans-serif, &quot;PingFang SC&quot;; font-size: 11px; text-rendering: geometricprecision; user-select: none; fill: rgb(255, 255, 255);">Unsqueeze</text><title>/Unsqueeze_3</title></g><g class="node-attribute-list" transform="translate(0,21)"><path d="M0,0h75a0,0 0 0 1 0,0v27a5,5 0 0 1 -5,5h-65a5,5 0 0 1 -5,-5v-27a0,0 0 0 1 0,0z" style="stroke: rgb(0, 0, 0); fill: rgb(255, 255, 255); stroke-width: 0;"/><g class="node-attribute"><text xml:space="preserve" x="6" y="13" style="font-family: -apple-system, BlinkMacSystemFont, &quot;Segoe WPC&quot;, &quot;Segoe UI&quot;, Ubuntu, &quot;Droid Sans&quot;, sans-serif, &quot;PingFang SC&quot;; font-size: 9px; font-weight: normal; text-rendering: geometricprecision; user-select: none;"><title>int64</title><tspan>data</tspan><tspan> = 4</tspan></text></g><g class="node-attribute"><text xml:space="preserve" x="6" y="26" style="font-family: -apple-system, BlinkMacSystemFont, &quot;Segoe WPC&quot;, &quot;Segoe UI&quot;, Ubuntu, &quot;Droid Sans&quot;, sans-serif, &quot;PingFang SC&quot;; font-size: 9px; font-weight: normal; text-rendering: geometricprecision; user-select: none;"><title>int64[1]</title><tspan style="font-weight: bold;">axes</tspan><tspan>〈1〉</tspan></text></g><line class="node" x1="0" x2="75" y1="0" y2="0" style="stroke: rgb(51, 51, 51); fill: none; stroke-width: 1px;"/></g><path class="node node-border" d="M5,0h65a5,5 0 0 1 5,5v43a5,5 0 0 1 -5,5h-65a5,5 0 0 1 -5,-5v-43a5,5 0 0 1 5,-5z" style="stroke: rgb(51, 51, 51); fill: none; stroke-width: 1px;"/></g><g id="node-name-/Concat" class="node graph-node" transform="translate(177.390625,114.5)" style=""><g class="node-item node-item-type node-item-type-tensor" transform="translate(0,0)"><path d="M5,0h41.40625a5,5 0 0 1 5,5v11a5,5 0 0 1 -5,5h-41.40625a5,5 0 0 1 -5,-5v-11a5,5 0 0 1 5,-5z" style="stroke: rgb(0, 0, 0); fill: rgb(89, 66, 59); stroke-width: 0;"/><text x="6" y="15" style="font-family: -apple-system, BlinkMacSystemFont, &quot;Segoe WPC&quot;, &quot;Segoe UI&quot;, Ubuntu, &quot;Droid Sans&quot;, sans-serif, &quot;PingFang SC&quot;; font-size: 11px; text-rendering: geometricprecision; user-select: none; fill: rgb(255, 255, 255);">Concat</text><title>/Concat</title></g><path class="node node-border" d="M5,0h41.40625a5,5 0 0 1 5,5v11a5,5 0 0 1 -5,5h-41.40625a5,5 0 0 1 -5,-5v-11a5,5 0 0 1 5,-5z" style="stroke: rgb(51, 51, 51); fill: none; stroke-width: 1px;"/></g><g id="node-name-/Reshape" class="node graph-node" transform="translate(105.9140625,156)" style=""><g class="node-item node-item-type node-item-type-shape" transform="translate(0,0)"><path d="M5,0h49.0625a5,5 0 0 1 5,5v11a5,5 0 0 1 -5,5h-49.0625a5,5 0 0 1 -5,-5v-11a5,5 0 0 1 5,-5z" style="stroke: rgb(0, 0, 0); fill: rgb(108, 79, 71); stroke-width: 0;"/><text x="6" y="15" style="font-family: -apple-system, BlinkMacSystemFont, &quot;Segoe WPC&quot;, &quot;Segoe UI&quot;, Ubuntu, &quot;Droid Sans&quot;, sans-serif, &quot;PingFang SC&quot;; font-size: 11px; text-rendering: geometricprecision; user-select: none; fill: rgb(255, 255, 255);">Reshape</text><title>/Reshape</title></g><path class="node node-border" d="M5,0h49.0625a5,5 0 0 1 5,5v11a5,5 0 0 1 -5,5h-49.0625a5,5 0 0 1 -5,-5v-11a5,5 0 0 1 5,-5z" style="stroke: rgb(51, 51, 51); fill: none; stroke-width: 1px;"/></g><g class="node" transform="translate(111.2265625,219)" style=""><g class="node-item graph-item-output" transform="translate(0,0)"><path d="M5,0h38.4375a5,5 0 0 1 5,5v11a5,5 0 0 1 -5,5h-38.4375a5,5 0 0 1 -5,-5v-11a5,5 0 0 1 5,-5z" style="stroke: rgb(0, 0, 0); fill: rgb(238, 238, 238); stroke-width: 0;"/><text x="6" y="15" style="font-family: -apple-system, BlinkMacSystemFont, &quot;Segoe WPC&quot;, &quot;Segoe UI&quot;, Ubuntu, &quot;Droid Sans&quot;, sans-serif, &quot;PingFang SC&quot;; font-size: 11px; text-rendering: geometricprecision; user-select: none;">output</text><title>float32[2,3,59,4]</title></g><path class="node node-border" d="M5,0h38.4375a5,5 0 0 1 5,5v11a5,5 0 0 1 -5,5h-38.4375a5,5 0 0 1 -5,-5v-11a5,5 0 0 1 5,-5z" style="stroke: rgb(51, 51, 51); fill: none; stroke-width: 1px;"/></g></g></g></svg>